<mxfile host="app.diagrams.net" modified="2024-02-08T17:00:00.609Z" agent="Mozilla/5.0 (Windows NT 10.0; Win64; x64) AppleWebKit/537.36 (KHTML, like Gecko) Chrome/121.0.0.0 Safari/537.36" etag="2bjKxgnitg5GdU_buL7C" version="23.1.2" type="device">
  <diagram name="PÃ¡gina-1" id="pNwc-DHzrzREGIpBWxxY">
    <mxGraphModel dx="2407" dy="1639" grid="1" gridSize="10" guides="1" tooltips="1" connect="1" arrows="1" fold="1" page="1" pageScale="1" pageWidth="1169" pageHeight="827" math="1" shadow="0">
      <root>
        <mxCell id="0" />
        <mxCell id="1" parent="0" />
        <mxCell id="UNpR9z2FXg4TRxiv2AC8-20" value="" style="ellipse;whiteSpace=wrap;html=1;" parent="1" vertex="1">
          <mxGeometry x="660" y="148.62" width="91.62" height="200" as="geometry" />
        </mxCell>
        <mxCell id="UNpR9z2FXg4TRxiv2AC8-92" value="" style="rounded=0;whiteSpace=wrap;html=1;strokeColor=none;" parent="1" vertex="1">
          <mxGeometry x="710" y="148.62" width="50" height="201.38" as="geometry" />
        </mxCell>
        <mxCell id="UNpR9z2FXg4TRxiv2AC8-19" value="" style="ellipse;whiteSpace=wrap;html=1;" parent="1" vertex="1">
          <mxGeometry x="781.62" y="148.62" width="120" height="200" as="geometry" />
        </mxCell>
        <mxCell id="UNpR9z2FXg4TRxiv2AC8-90" style="edgeStyle=orthogonalEdgeStyle;rounded=0;orthogonalLoop=1;jettySize=auto;html=1;exitX=1;exitY=0.25;exitDx=0;exitDy=0;entryX=0;entryY=0.25;entryDx=0;entryDy=0;" parent="1" source="UNpR9z2FXg4TRxiv2AC8-1" target="UNpR9z2FXg4TRxiv2AC8-85" edge="1">
          <mxGeometry relative="1" as="geometry" />
        </mxCell>
        <mxCell id="UNpR9z2FXg4TRxiv2AC8-91" style="edgeStyle=orthogonalEdgeStyle;rounded=0;orthogonalLoop=1;jettySize=auto;html=1;exitX=1;exitY=0.75;exitDx=0;exitDy=0;entryX=0;entryY=0.75;entryDx=0;entryDy=0;" parent="1" source="UNpR9z2FXg4TRxiv2AC8-1" target="UNpR9z2FXg4TRxiv2AC8-85" edge="1">
          <mxGeometry relative="1" as="geometry" />
        </mxCell>
        <mxCell id="UNpR9z2FXg4TRxiv2AC8-1" value="&lt;font style=&quot;font-size: 30px;&quot;&gt;$$P(\theta_r)$$&lt;/font&gt;" style="rounded=0;whiteSpace=wrap;html=1;" parent="1" vertex="1">
          <mxGeometry x="-120" y="360" width="170" height="250" as="geometry" />
        </mxCell>
        <mxCell id="UNpR9z2FXg4TRxiv2AC8-67" style="edgeStyle=orthogonalEdgeStyle;rounded=0;orthogonalLoop=1;jettySize=auto;html=1;entryX=1;entryY=0.5;entryDx=0;entryDy=0;" parent="1" source="UNpR9z2FXg4TRxiv2AC8-2" target="UNpR9z2FXg4TRxiv2AC8-10" edge="1">
          <mxGeometry relative="1" as="geometry">
            <Array as="points">
              <mxPoint x="600" y="485" />
              <mxPoint x="600" y="150" />
            </Array>
          </mxGeometry>
        </mxCell>
        <mxCell id="UNpR9z2FXg4TRxiv2AC8-68" style="edgeStyle=orthogonalEdgeStyle;rounded=0;orthogonalLoop=1;jettySize=auto;html=1;exitX=1;exitY=0.25;exitDx=0;exitDy=0;entryX=1;entryY=0.25;entryDx=0;entryDy=0;" parent="1" source="UNpR9z2FXg4TRxiv2AC8-2" target="UNpR9z2FXg4TRxiv2AC8-10" edge="1">
          <mxGeometry relative="1" as="geometry">
            <Array as="points">
              <mxPoint x="620" y="423" />
              <mxPoint x="620" y="90" />
            </Array>
          </mxGeometry>
        </mxCell>
        <mxCell id="UNpR9z2FXg4TRxiv2AC8-73" style="edgeStyle=orthogonalEdgeStyle;rounded=0;orthogonalLoop=1;jettySize=auto;html=1;exitX=1;exitY=0.75;exitDx=0;exitDy=0;entryX=1;entryY=0.75;entryDx=0;entryDy=0;" parent="1" source="UNpR9z2FXg4TRxiv2AC8-2" target="UNpR9z2FXg4TRxiv2AC8-10" edge="1">
          <mxGeometry relative="1" as="geometry" />
        </mxCell>
        <mxCell id="UNpR9z2FXg4TRxiv2AC8-49" value="" style="edgeStyle=orthogonalEdgeStyle;rounded=0;orthogonalLoop=1;jettySize=auto;html=1;" parent="1" source="UNpR9z2FXg4TRxiv2AC8-3" target="UNpR9z2FXg4TRxiv2AC8-1" edge="1">
          <mxGeometry relative="1" as="geometry">
            <Array as="points">
              <mxPoint x="-220" y="430" />
              <mxPoint x="-220" y="430" />
            </Array>
          </mxGeometry>
        </mxCell>
        <mxCell id="UNpR9z2FXg4TRxiv2AC8-3" value="&lt;font style=&quot;font-size: 25px;&quot;&gt;PI&lt;/font&gt;" style="rounded=0;whiteSpace=wrap;html=1;" parent="1" vertex="1">
          <mxGeometry x="-240" y="400" width="60" height="60" as="geometry" />
        </mxCell>
        <mxCell id="UNpR9z2FXg4TRxiv2AC8-50" style="edgeStyle=orthogonalEdgeStyle;rounded=0;orthogonalLoop=1;jettySize=auto;html=1;entryX=0;entryY=0.5;entryDx=0;entryDy=0;" parent="1" source="UNpR9z2FXg4TRxiv2AC8-5" target="UNpR9z2FXg4TRxiv2AC8-45" edge="1">
          <mxGeometry relative="1" as="geometry">
            <Array as="points">
              <mxPoint x="-370" y="530" />
            </Array>
          </mxGeometry>
        </mxCell>
        <mxCell id="UNpR9z2FXg4TRxiv2AC8-5" value="" style="shape=sumEllipse;perimeter=ellipsePerimeter;whiteSpace=wrap;html=1;backgroundOutline=1;" parent="1" vertex="1">
          <mxGeometry x="-390" y="190" width="40" height="40" as="geometry" />
        </mxCell>
        <mxCell id="UNpR9z2FXg4TRxiv2AC8-65" style="edgeStyle=orthogonalEdgeStyle;rounded=0;orthogonalLoop=1;jettySize=auto;html=1;entryX=0;entryY=0.5;entryDx=0;entryDy=0;" parent="1" source="UNpR9z2FXg4TRxiv2AC8-6" target="UNpR9z2FXg4TRxiv2AC8-3" edge="1">
          <mxGeometry relative="1" as="geometry">
            <Array as="points">
              <mxPoint x="-280" y="430" />
            </Array>
          </mxGeometry>
        </mxCell>
        <mxCell id="UNpR9z2FXg4TRxiv2AC8-6" value="" style="shape=sumEllipse;perimeter=ellipsePerimeter;whiteSpace=wrap;html=1;backgroundOutline=1;" parent="1" vertex="1">
          <mxGeometry x="-300" y="70" width="40" height="40" as="geometry" />
        </mxCell>
        <mxCell id="UNpR9z2FXg4TRxiv2AC8-7" value="" style="endArrow=none;html=1;rounded=0;" parent="1" edge="1">
          <mxGeometry width="50" height="50" relative="1" as="geometry">
            <mxPoint x="-310" y="60" as="sourcePoint" />
            <mxPoint x="-310" y="80" as="targetPoint" />
          </mxGeometry>
        </mxCell>
        <mxCell id="UNpR9z2FXg4TRxiv2AC8-8" value="" style="endArrow=none;html=1;rounded=0;" parent="1" edge="1">
          <mxGeometry width="50" height="50" relative="1" as="geometry">
            <mxPoint x="-320" y="70" as="sourcePoint" />
            <mxPoint x="-300" y="70" as="targetPoint" />
            <Array as="points" />
          </mxGeometry>
        </mxCell>
        <mxCell id="UNpR9z2FXg4TRxiv2AC8-55" style="edgeStyle=orthogonalEdgeStyle;rounded=0;orthogonalLoop=1;jettySize=auto;html=1;exitX=0;exitY=0.25;exitDx=0;exitDy=0;entryX=1;entryY=0.5;entryDx=0;entryDy=0;" parent="1" source="UNpR9z2FXg4TRxiv2AC8-9" target="UNpR9z2FXg4TRxiv2AC8-6" edge="1">
          <mxGeometry relative="1" as="geometry" />
        </mxCell>
        <mxCell id="UNpR9z2FXg4TRxiv2AC8-61" style="edgeStyle=orthogonalEdgeStyle;rounded=0;orthogonalLoop=1;jettySize=auto;html=1;exitX=0;exitY=0.75;exitDx=0;exitDy=0;entryX=1;entryY=0.5;entryDx=0;entryDy=0;" parent="1" source="UNpR9z2FXg4TRxiv2AC8-9" target="UNpR9z2FXg4TRxiv2AC8-5" edge="1">
          <mxGeometry relative="1" as="geometry">
            <Array as="points">
              <mxPoint x="-300" y="210" />
              <mxPoint x="-300" y="210" />
            </Array>
          </mxGeometry>
        </mxCell>
        <mxCell id="UNpR9z2FXg4TRxiv2AC8-9" value="&lt;font style=&quot;font-size: 30px;&quot;&gt;$$P(-\theta_r)$$&lt;/font&gt;" style="rounded=0;whiteSpace=wrap;html=1;" parent="1" vertex="1">
          <mxGeometry x="-150" y="30" width="170" height="240" as="geometry" />
        </mxCell>
        <mxCell id="UNpR9z2FXg4TRxiv2AC8-18" value="" style="ellipse;whiteSpace=wrap;html=1;" parent="1" vertex="1">
          <mxGeometry x="791.62" y="157.62" width="103" height="180" as="geometry" />
        </mxCell>
        <mxCell id="UNpR9z2FXg4TRxiv2AC8-23" value="" style="endArrow=none;html=1;rounded=0;exitX=0.5;exitY=1;exitDx=0;exitDy=0;entryX=0.5;entryY=1;entryDx=0;entryDy=0;" parent="1" source="UNpR9z2FXg4TRxiv2AC8-20" target="UNpR9z2FXg4TRxiv2AC8-19" edge="1">
          <mxGeometry width="50" height="50" relative="1" as="geometry">
            <mxPoint x="751.62" y="257.62" as="sourcePoint" />
            <mxPoint x="801.62" y="207.62" as="targetPoint" />
          </mxGeometry>
        </mxCell>
        <mxCell id="UNpR9z2FXg4TRxiv2AC8-22" value="" style="endArrow=none;html=1;rounded=0;exitX=0.5;exitY=0;exitDx=0;exitDy=0;" parent="1" source="UNpR9z2FXg4TRxiv2AC8-20" edge="1">
          <mxGeometry width="50" height="50" relative="1" as="geometry">
            <mxPoint x="751.62" y="257.62" as="sourcePoint" />
            <mxPoint x="842" y="149" as="targetPoint" />
          </mxGeometry>
        </mxCell>
        <mxCell id="UNpR9z2FXg4TRxiv2AC8-28" value="" style="ellipse;whiteSpace=wrap;html=1;" parent="1" vertex="1">
          <mxGeometry x="816.62" y="204.12" width="53" height="89" as="geometry" />
        </mxCell>
        <mxCell id="UNpR9z2FXg4TRxiv2AC8-17" value="" style="shape=cylinder3;whiteSpace=wrap;html=1;boundedLbl=1;backgroundOutline=1;size=15;rotation=90;" parent="1" vertex="1">
          <mxGeometry x="942.75" y="115" width="50" height="267.25" as="geometry" />
        </mxCell>
        <mxCell id="UNpR9z2FXg4TRxiv2AC8-29" value="" style="endArrow=none;html=1;rounded=0;entryX=0.5;entryY=0;entryDx=0;entryDy=0;exitX=0.082;exitY=0.253;exitDx=0;exitDy=0;exitPerimeter=0;" parent="1" source="UNpR9z2FXg4TRxiv2AC8-18" target="UNpR9z2FXg4TRxiv2AC8-28" edge="1">
          <mxGeometry width="50" height="50" relative="1" as="geometry">
            <mxPoint x="751.62" y="257.62" as="sourcePoint" />
            <mxPoint x="801.62" y="207.62" as="targetPoint" />
          </mxGeometry>
        </mxCell>
        <mxCell id="UNpR9z2FXg4TRxiv2AC8-30" value="" style="endArrow=none;html=1;rounded=0;entryX=0.5;entryY=1;entryDx=0;entryDy=0;exitX=0.073;exitY=0.748;exitDx=0;exitDy=0;exitPerimeter=0;" parent="1" source="UNpR9z2FXg4TRxiv2AC8-18" target="UNpR9z2FXg4TRxiv2AC8-28" edge="1">
          <mxGeometry width="50" height="50" relative="1" as="geometry">
            <mxPoint x="751.62" y="257.62" as="sourcePoint" />
            <mxPoint x="801.62" y="207.62" as="targetPoint" />
          </mxGeometry>
        </mxCell>
        <mxCell id="QslCETrHilHxCTTnrkMO-1" style="edgeStyle=orthogonalEdgeStyle;rounded=0;orthogonalLoop=1;jettySize=auto;html=1;exitX=0.5;exitY=1;exitDx=0;exitDy=0;" edge="1" parent="1" source="UNpR9z2FXg4TRxiv2AC8-34">
          <mxGeometry relative="1" as="geometry">
            <mxPoint x="765" y="150" as="targetPoint" />
          </mxGeometry>
        </mxCell>
        <mxCell id="QslCETrHilHxCTTnrkMO-2" style="edgeStyle=orthogonalEdgeStyle;rounded=0;orthogonalLoop=1;jettySize=auto;html=1;exitX=0.75;exitY=1;exitDx=0;exitDy=0;" edge="1" parent="1" source="UNpR9z2FXg4TRxiv2AC8-34">
          <mxGeometry relative="1" as="geometry">
            <mxPoint x="780" y="150" as="targetPoint" />
          </mxGeometry>
        </mxCell>
        <mxCell id="QslCETrHilHxCTTnrkMO-3" style="edgeStyle=orthogonalEdgeStyle;rounded=0;orthogonalLoop=1;jettySize=auto;html=1;exitX=0.25;exitY=1;exitDx=0;exitDy=0;" edge="1" parent="1" source="UNpR9z2FXg4TRxiv2AC8-34">
          <mxGeometry relative="1" as="geometry">
            <mxPoint x="750" y="150" as="targetPoint" />
          </mxGeometry>
        </mxCell>
        <mxCell id="UNpR9z2FXg4TRxiv2AC8-34" value="&lt;font style=&quot;font-size: 15px;&quot;&gt;RÃ©seau&amp;nbsp;&lt;br&gt;50 Hz&lt;br&gt;(connectÃ© &lt;br&gt;au stator)&lt;br&gt;&lt;/font&gt;" style="rounded=0;whiteSpace=wrap;html=1;" parent="1" vertex="1">
          <mxGeometry x="700" y="-10" width="130" height="110" as="geometry" />
        </mxCell>
        <mxCell id="UNpR9z2FXg4TRxiv2AC8-45" value="&lt;font style=&quot;font-size: 25px;&quot;&gt;PI&lt;/font&gt;" style="rounded=0;whiteSpace=wrap;html=1;" parent="1" vertex="1">
          <mxGeometry x="-240" y="500" width="60" height="60" as="geometry" />
        </mxCell>
        <mxCell id="UNpR9z2FXg4TRxiv2AC8-47" style="edgeStyle=orthogonalEdgeStyle;rounded=0;orthogonalLoop=1;jettySize=auto;html=1;entryX=0.01;entryY=0.679;entryDx=0;entryDy=0;entryPerimeter=0;" parent="1" source="UNpR9z2FXg4TRxiv2AC8-45" target="UNpR9z2FXg4TRxiv2AC8-1" edge="1">
          <mxGeometry relative="1" as="geometry" />
        </mxCell>
        <mxCell id="UNpR9z2FXg4TRxiv2AC8-59" style="edgeStyle=orthogonalEdgeStyle;rounded=0;orthogonalLoop=1;jettySize=auto;html=1;exitX=0;exitY=0.25;exitDx=0;exitDy=0;entryX=1;entryY=0.25;entryDx=0;entryDy=0;" parent="1" source="UNpR9z2FXg4TRxiv2AC8-10" target="UNpR9z2FXg4TRxiv2AC8-9" edge="1">
          <mxGeometry relative="1" as="geometry" />
        </mxCell>
        <mxCell id="UNpR9z2FXg4TRxiv2AC8-60" style="edgeStyle=orthogonalEdgeStyle;rounded=0;orthogonalLoop=1;jettySize=auto;html=1;exitX=0;exitY=0.75;exitDx=0;exitDy=0;entryX=1;entryY=0.75;entryDx=0;entryDy=0;" parent="1" source="UNpR9z2FXg4TRxiv2AC8-10" target="UNpR9z2FXg4TRxiv2AC8-9" edge="1">
          <mxGeometry relative="1" as="geometry" />
        </mxCell>
        <mxCell id="UNpR9z2FXg4TRxiv2AC8-10" value="&lt;font style=&quot;font-size: 30px;&quot;&gt;$$T_{23}$$&lt;/font&gt;" style="rounded=0;whiteSpace=wrap;html=1;" parent="1" vertex="1">
          <mxGeometry x="160" y="30" width="170" height="240" as="geometry" />
        </mxCell>
        <mxCell id="UNpR9z2FXg4TRxiv2AC8-86" style="edgeStyle=orthogonalEdgeStyle;rounded=0;orthogonalLoop=1;jettySize=auto;html=1;entryX=0;entryY=0.5;entryDx=0;entryDy=0;" parent="1" source="UNpR9z2FXg4TRxiv2AC8-85" target="UNpR9z2FXg4TRxiv2AC8-2" edge="1">
          <mxGeometry relative="1" as="geometry" />
        </mxCell>
        <mxCell id="UNpR9z2FXg4TRxiv2AC8-87" style="edgeStyle=orthogonalEdgeStyle;rounded=0;orthogonalLoop=1;jettySize=auto;html=1;exitX=1;exitY=0.25;exitDx=0;exitDy=0;entryX=0;entryY=0.25;entryDx=0;entryDy=0;" parent="1" source="UNpR9z2FXg4TRxiv2AC8-85" target="UNpR9z2FXg4TRxiv2AC8-2" edge="1">
          <mxGeometry relative="1" as="geometry" />
        </mxCell>
        <mxCell id="UNpR9z2FXg4TRxiv2AC8-123" value="" style="endArrow=classic;html=1;rounded=0;entryX=0;entryY=0.5;entryDx=0;entryDy=0;" parent="1" target="UNpR9z2FXg4TRxiv2AC8-5" edge="1">
          <mxGeometry width="50" height="50" relative="1" as="geometry">
            <mxPoint x="-460" y="210" as="sourcePoint" />
            <mxPoint x="-610" y="280" as="targetPoint" />
          </mxGeometry>
        </mxCell>
        <mxCell id="UNpR9z2FXg4TRxiv2AC8-124" value="" style="endArrow=classic;html=1;rounded=0;entryX=0;entryY=0.5;entryDx=0;entryDy=0;" parent="1" target="UNpR9z2FXg4TRxiv2AC8-6" edge="1">
          <mxGeometry width="50" height="50" relative="1" as="geometry">
            <mxPoint x="-360" y="90" as="sourcePoint" />
            <mxPoint x="-610" y="280" as="targetPoint" />
          </mxGeometry>
        </mxCell>
        <mxCell id="UNpR9z2FXg4TRxiv2AC8-125" value="&lt;font style=&quot;font-size: 25px;&quot;&gt;$$i_{dr_{ref}}$$&lt;/font&gt;" style="text;html=1;strokeColor=none;fillColor=none;align=center;verticalAlign=middle;whiteSpace=wrap;rounded=0;" parent="1" vertex="1">
          <mxGeometry x="-430" y="70" width="60" height="30" as="geometry" />
        </mxCell>
        <mxCell id="UNpR9z2FXg4TRxiv2AC8-126" value="&lt;font style=&quot;font-size: 25px;&quot;&gt;$$i_{qr_{ref}}$$&lt;/font&gt;" style="text;html=1;strokeColor=none;fillColor=none;align=center;verticalAlign=middle;whiteSpace=wrap;rounded=0;rotation=0;fontSize=25;" parent="1" vertex="1">
          <mxGeometry x="-530" y="190" width="60" height="30" as="geometry" />
        </mxCell>
        <mxCell id="UNpR9z2FXg4TRxiv2AC8-128" value="" style="endArrow=none;html=1;rounded=0;" parent="1" edge="1">
          <mxGeometry width="50" height="50" relative="1" as="geometry">
            <mxPoint x="-260" y="70" as="sourcePoint" />
            <mxPoint x="-240" y="70" as="targetPoint" />
          </mxGeometry>
        </mxCell>
        <mxCell id="UNpR9z2FXg4TRxiv2AC8-129" value="" style="endArrow=none;html=1;rounded=0;" parent="1" edge="1">
          <mxGeometry width="50" height="50" relative="1" as="geometry">
            <mxPoint x="-400" y="180" as="sourcePoint" />
            <mxPoint x="-400" y="200" as="targetPoint" />
          </mxGeometry>
        </mxCell>
        <mxCell id="UNpR9z2FXg4TRxiv2AC8-130" value="" style="endArrow=none;html=1;rounded=0;" parent="1" edge="1">
          <mxGeometry width="50" height="50" relative="1" as="geometry">
            <mxPoint x="-410" y="190" as="sourcePoint" />
            <mxPoint x="-390" y="190" as="targetPoint" />
            <Array as="points" />
          </mxGeometry>
        </mxCell>
        <mxCell id="UNpR9z2FXg4TRxiv2AC8-131" value="" style="endArrow=none;html=1;rounded=0;" parent="1" edge="1">
          <mxGeometry width="50" height="50" relative="1" as="geometry">
            <mxPoint x="-350" y="190" as="sourcePoint" />
            <mxPoint x="-330" y="190" as="targetPoint" />
          </mxGeometry>
        </mxCell>
        <mxCell id="UNpR9z2FXg4TRxiv2AC8-2" value="&lt;font style=&quot;font-size: 20px;&quot;&gt;&lt;span style=&quot;&quot;&gt;Onduleur&amp;nbsp;&lt;br&gt;Redresseur&lt;br&gt;&lt;/span&gt;&lt;/font&gt;" style="rounded=0;whiteSpace=wrap;html=1;" parent="1" vertex="1">
          <mxGeometry x="390" y="360" width="170" height="250" as="geometry" />
        </mxCell>
        <mxCell id="UNpR9z2FXg4TRxiv2AC8-85" value="&lt;font style=&quot;font-size: 30px;&quot;&gt;$$T_{32}$$&lt;/font&gt;" style="rounded=0;whiteSpace=wrap;html=1;" parent="1" vertex="1">
          <mxGeometry x="130" y="360" width="170" height="250" as="geometry" />
        </mxCell>
        <mxCell id="UNpR9z2FXg4TRxiv2AC8-88" style="edgeStyle=orthogonalEdgeStyle;rounded=0;orthogonalLoop=1;jettySize=auto;html=1;exitX=1;exitY=0.75;exitDx=0;exitDy=0;entryX=0;entryY=0.75;entryDx=0;entryDy=0;" parent="1" source="UNpR9z2FXg4TRxiv2AC8-85" target="UNpR9z2FXg4TRxiv2AC8-2" edge="1">
          <mxGeometry relative="1" as="geometry" />
        </mxCell>
        <mxCell id="UNpR9z2FXg4TRxiv2AC8-136" value="&lt;font style=&quot;font-size: 18px;&quot;&gt;$$v_{ar_{ref}}$$&lt;/font&gt;" style="text;html=1;strokeColor=none;fillColor=none;align=center;verticalAlign=middle;whiteSpace=wrap;rounded=0;" parent="1" vertex="1">
          <mxGeometry x="320" y="384" width="40" height="30" as="geometry" />
        </mxCell>
        <mxCell id="UNpR9z2FXg4TRxiv2AC8-137" value="&lt;font style=&quot;font-size: 18px;&quot;&gt;$$v_{br_{ref}}$$&lt;/font&gt;" style="text;html=1;strokeColor=none;fillColor=none;align=center;verticalAlign=middle;whiteSpace=wrap;rounded=0;" parent="1" vertex="1">
          <mxGeometry x="320" y="450" width="40" height="30" as="geometry" />
        </mxCell>
        <mxCell id="UNpR9z2FXg4TRxiv2AC8-139" value="&lt;font style=&quot;font-size: 18px;&quot;&gt;$$v_{cr_{ref}}$$&lt;/font&gt;" style="text;html=1;strokeColor=none;fillColor=none;align=center;verticalAlign=middle;whiteSpace=wrap;rounded=0;" parent="1" vertex="1">
          <mxGeometry x="320" y="510" width="40" height="30" as="geometry" />
        </mxCell>
        <mxCell id="UNpR9z2FXg4TRxiv2AC8-141" value="&lt;font style=&quot;font-size: 18px;&quot;&gt;$$v_{\alpha r_{ref}}$$&lt;/font&gt;" style="text;html=1;strokeColor=none;fillColor=none;align=center;verticalAlign=middle;whiteSpace=wrap;rounded=0;" parent="1" vertex="1">
          <mxGeometry x="70" y="384" width="40" height="30" as="geometry" />
        </mxCell>
        <mxCell id="UNpR9z2FXg4TRxiv2AC8-142" value="&lt;font style=&quot;font-size: 18px;&quot;&gt;$$v_{\beta r_{ref}}$$&lt;/font&gt;" style="text;html=1;strokeColor=none;fillColor=none;align=center;verticalAlign=middle;whiteSpace=wrap;rounded=0;" parent="1" vertex="1">
          <mxGeometry x="70" y="510" width="40" height="30" as="geometry" />
        </mxCell>
        <mxCell id="QslCETrHilHxCTTnrkMO-4" style="edgeStyle=orthogonalEdgeStyle;rounded=0;orthogonalLoop=1;jettySize=auto;html=1;exitX=1;exitY=0.25;exitDx=0;exitDy=0;entryX=0.991;entryY=0.636;entryDx=0;entryDy=0;entryPerimeter=0;" edge="1" parent="1" source="UNpR9z2FXg4TRxiv2AC8-2" target="UNpR9z2FXg4TRxiv2AC8-17">
          <mxGeometry relative="1" as="geometry" />
        </mxCell>
        <mxCell id="QslCETrHilHxCTTnrkMO-5" style="edgeStyle=orthogonalEdgeStyle;rounded=0;orthogonalLoop=1;jettySize=auto;html=1;entryX=1;entryY=0.5;entryDx=0;entryDy=0;entryPerimeter=0;" edge="1" parent="1" source="UNpR9z2FXg4TRxiv2AC8-2" target="UNpR9z2FXg4TRxiv2AC8-17">
          <mxGeometry relative="1" as="geometry" />
        </mxCell>
        <mxCell id="QslCETrHilHxCTTnrkMO-6" style="edgeStyle=orthogonalEdgeStyle;rounded=0;orthogonalLoop=1;jettySize=auto;html=1;exitX=1;exitY=0.75;exitDx=0;exitDy=0;entryX=0.991;entryY=0.387;entryDx=0;entryDy=0;entryPerimeter=0;" edge="1" parent="1" source="UNpR9z2FXg4TRxiv2AC8-2" target="UNpR9z2FXg4TRxiv2AC8-17">
          <mxGeometry relative="1" as="geometry" />
        </mxCell>
        <mxCell id="QslCETrHilHxCTTnrkMO-11" value="&lt;span style=&quot;font-size: 18px;&quot;&gt;$$v_{dr_{ref}}$$&lt;/span&gt;" style="text;html=1;strokeColor=none;fillColor=none;align=center;verticalAlign=middle;whiteSpace=wrap;rounded=0;" vertex="1" parent="1">
          <mxGeometry x="-180" y="390" width="60" height="30" as="geometry" />
        </mxCell>
        <mxCell id="QslCETrHilHxCTTnrkMO-15" value="&lt;span style=&quot;font-size: 18px;&quot;&gt;$$v_{qr_{ref}}$$&lt;/span&gt;" style="text;html=1;strokeColor=none;fillColor=none;align=center;verticalAlign=middle;whiteSpace=wrap;rounded=0;" vertex="1" parent="1">
          <mxGeometry x="-180" y="485" width="60" height="30" as="geometry" />
        </mxCell>
        <mxCell id="QslCETrHilHxCTTnrkMO-17" value="&lt;font style=&quot;font-size: 18px;&quot;&gt;$$v_{ar}$$&lt;/font&gt;" style="text;html=1;strokeColor=none;fillColor=none;align=center;verticalAlign=middle;whiteSpace=wrap;rounded=0;" vertex="1" parent="1">
          <mxGeometry x="670" y="384" width="40" height="30" as="geometry" />
        </mxCell>
        <mxCell id="QslCETrHilHxCTTnrkMO-19" value="&lt;font style=&quot;font-size: 18px;&quot;&gt;$$v_{br}$$&lt;/font&gt;" style="text;html=1;strokeColor=none;fillColor=none;align=center;verticalAlign=middle;whiteSpace=wrap;rounded=0;" vertex="1" parent="1">
          <mxGeometry x="670" y="440" width="40" height="30" as="geometry" />
        </mxCell>
        <mxCell id="QslCETrHilHxCTTnrkMO-22" value="&lt;font style=&quot;font-size: 18px;&quot;&gt;$$v_{cr}$$&lt;/font&gt;" style="text;html=1;strokeColor=none;fillColor=none;align=center;verticalAlign=middle;whiteSpace=wrap;rounded=0;" vertex="1" parent="1">
          <mxGeometry x="670" y="510" width="40" height="30" as="geometry" />
        </mxCell>
        <mxCell id="QslCETrHilHxCTTnrkMO-24" value="&lt;font style=&quot;font-size: 18px;&quot;&gt;$$i_{ar}$$&lt;/font&gt;" style="text;html=1;strokeColor=none;fillColor=none;align=center;verticalAlign=middle;whiteSpace=wrap;rounded=0;" vertex="1" parent="1">
          <mxGeometry x="440" y="50" width="40" height="30" as="geometry" />
        </mxCell>
        <mxCell id="QslCETrHilHxCTTnrkMO-27" value="&lt;font style=&quot;font-size: 18px;&quot;&gt;$$i_{br}$$&lt;/font&gt;" style="text;html=1;strokeColor=none;fillColor=none;align=center;verticalAlign=middle;whiteSpace=wrap;rounded=0;" vertex="1" parent="1">
          <mxGeometry x="440" y="110" width="40" height="30" as="geometry" />
        </mxCell>
        <mxCell id="QslCETrHilHxCTTnrkMO-28" value="&lt;font style=&quot;font-size: 18px;&quot;&gt;$$i_{cr}$$&lt;/font&gt;" style="text;html=1;strokeColor=none;fillColor=none;align=center;verticalAlign=middle;whiteSpace=wrap;rounded=0;" vertex="1" parent="1">
          <mxGeometry x="440" y="170" width="40" height="30" as="geometry" />
        </mxCell>
        <mxCell id="QslCETrHilHxCTTnrkMO-30" value="&lt;font style=&quot;font-size: 18px;&quot;&gt;$$i_{\alpha r}$$&lt;/font&gt;" style="text;html=1;strokeColor=none;fillColor=none;align=center;verticalAlign=middle;whiteSpace=wrap;rounded=0;" vertex="1" parent="1">
          <mxGeometry x="70" y="50" width="40" height="30" as="geometry" />
        </mxCell>
        <mxCell id="QslCETrHilHxCTTnrkMO-32" value="&lt;font style=&quot;font-size: 18px;&quot;&gt;$$i_{\beta r}$$&lt;/font&gt;" style="text;html=1;strokeColor=none;fillColor=none;align=center;verticalAlign=middle;whiteSpace=wrap;rounded=0;" vertex="1" parent="1">
          <mxGeometry x="70" y="170" width="40" height="30" as="geometry" />
        </mxCell>
        <mxCell id="QslCETrHilHxCTTnrkMO-34" value="&lt;font style=&quot;font-size: 18px;&quot;&gt;$$i_{d r}$$&lt;/font&gt;" style="text;html=1;strokeColor=none;fillColor=none;align=center;verticalAlign=middle;whiteSpace=wrap;rounded=0;" vertex="1" parent="1">
          <mxGeometry x="-220" y="50" width="40" height="30" as="geometry" />
        </mxCell>
        <mxCell id="QslCETrHilHxCTTnrkMO-36" value="&lt;font style=&quot;font-size: 18px;&quot;&gt;$$i_{q r}$$&lt;/font&gt;" style="text;html=1;strokeColor=none;fillColor=none;align=center;verticalAlign=middle;whiteSpace=wrap;rounded=0;" vertex="1" parent="1">
          <mxGeometry x="-220" y="170" width="40" height="30" as="geometry" />
        </mxCell>
      </root>
    </mxGraphModel>
  </diagram>
</mxfile>
